# xmcd
#
# Track frame offsets: 
#        182
#        16092
#        43805
#        65732
#        94035
#        111085
#        139240
#        163902
#        183897
#        196965
#        224795
#        259752
#        271257
#
# Disc length: 4311 seconds
#
# Revision: 4
# Processed by: cddbd v1.5.2PL0 Copyright (c) Steve Scherf et al.
# Submitted via: ExactAudioCopy v0.95b3
#
DISCID=c310d50d
DTITLE=Buddy Rich Big Band - Burning For Buddy - A Tribute To The Musi
DTITLE=c Of Buddy Rich Volume II
DYEAR=1997
DGENRE=Big Band
TTITLE0=Moment's Notice
TTITLE1=Basically Blues
TTITLE2=Willowcrest
TTITLE3=In A Mellow Tone
TTITLE4=Time Check
TTITLE5=Goodbye Yesterday
TTITLE6=Groovin' Hard
TTITLE7=Big Swing Face
TTITLE8=Standing Up In A Hammock
TTITLE9=Take The A Train
TTITLE10=One O'Clock Jump
TTITLE11=Them There Eyes
TTITLE12=Channel One Suite
EXTD=
EXTT0=Drums: Steve Smith\nSolos: Andy Fusco, Greg Gisbert, Steve \nMar
EXTT0=cus\n
EXTT1=Drums: Steve Gadd\nSolos: Scott Wendholt, Walt Weiskopf, \nJon W
EXTT1=erking\n
EXTT2=Drums: Bill Bruford\nSolos: Steve Marcus, Scott Wendholt\n
EXTT3=Drums: Gregg Bissonette\nSolos: Gregg Gisbert\n
EXTT4=Drums: Dave Weckl\nSolos: Steve Marcus\n
EXTT5=Drums: Simon Phillips\nSolos: Walt Weiskopf, Scott Wendholt\n
EXTT6=Drums: Dave Garibaldi\nSolos: Steve Marcus\n
EXTT7=Drums: Kenny Aronoff\nSolos: Steve Marcus\n
EXTT8=Drums: Marvin Smitty Smith\nSolos: Jon Werking, John Mosca, Andy
EXTT8=\nFusco, Steve Marcus\n
EXTT9=Drums: Joe Morello\n
EXTT10=Drums: Neil Pert\nSolos: Lee Musiker, Mike Rubino, Scott \nWend
EXTT10=holt, Dean Pratt, John Mosca\n
EXTT11=Vocal: Cathy Rich\nDrums: Steve Arnold\nSolos: Steve Marcus\n
EXTT12=Drums: Buddy Rich\n(origional drum track recorded live 1968]\n
PLAYORDER=
